<svg width="283" height="284" viewBox="0 0 283 284" fill="none" xmlns="http://www.w3.org/2000/svg">
<g clip-path="url(#clip0_33_15)">
<g filter="url(#filter0_ii_33_15)">
<path d="M203.139 129.878C182.23 120.343 176.018 105.44 185.553 84.5304C195.088 63.6213 221.219 43.0292 242.129 52.564C263.038 62.0988 278.26 85.6788 268.726 106.588C259.191 127.497 224.048 139.413 203.139 129.878ZM234.063 70.2523C222.922 65.1722 208.321 81.4563 203.241 92.5965C198.161 103.737 200.065 107.11 211.205 112.19C222.345 117.27 245.957 109.662 251.037 98.5219C256.117 87.3817 245.203 75.3323 234.063 70.2523Z" fill="#400606"/>
</g>
<g filter="url(#filter1_ii_33_15)">
<path d="M205.787 192.012C205.787 246.67 179.664 274.82 125.007 274.82C70.3497 274.82 0 238.591 0 183.933C0 129.276 36.0058 73.0645 90.6631 73.0645C145.32 73.0645 205.787 137.355 205.787 192.012ZM46.2378 183.933C46.2378 213.054 95.8862 228.583 125.007 228.583C154.128 228.583 159.549 221.133 159.549 192.012C159.549 162.892 119.784 119.302 90.6631 119.302C61.5422 119.302 46.2378 154.813 46.2378 183.933Z" fill="#400606"/>
</g>
<g filter="url(#filter2_ii_33_15)">
<path d="M183.069 66.3559C173.588 74.7126 164.711 74.4854 156.355 65.0043C147.998 55.5232 143.526 37.7809 153.007 29.4242C162.489 21.0675 177.744 18.7188 186.101 28.1999C194.458 37.681 192.55 57.9992 183.069 66.3559ZM160.077 37.4448C155.025 41.8971 159.923 52.8835 164.375 57.9349C168.827 62.9863 170.948 62.7877 176 58.3353C181.051 53.883 182.533 40.3207 178.08 35.2693C173.628 30.2179 165.128 32.9924 160.077 37.4448Z" fill="#400606"/>
</g>
</g>
<defs>
<filter id="filter0_ii_33_15" x="177.796" y="46.7693" width="100.631" height="93.2332" filterUnits="userSpaceOnUse" color-interpolation-filters="sRGB">
<feFlood flood-opacity="0" result="BackgroundImageFix"/>
<feBlend mode="normal" in="SourceGraphic" in2="BackgroundImageFix" result="shape"/>
<feColorMatrix in="SourceAlpha" type="matrix" values="0 0 0 0 0 0 0 0 0 0 0 0 0 0 0 0 0 0 127 0" result="hardAlpha"/>
<feOffset dx="-3.39673" dy="-3.39673"/>
<feGaussianBlur stdDeviation="3.39673"/>
<feComposite in2="hardAlpha" operator="arithmetic" k2="-1" k3="1"/>
<feColorMatrix type="matrix" values="0 0 0 0 0 0 0 0 0 0 0 0 0 0 0 0 0 0 0.5 0"/>
<feBlend mode="normal" in2="shape" result="effect1_innerShadow_33_15"/>
<feColorMatrix in="SourceAlpha" type="matrix" values="0 0 0 0 0 0 0 0 0 0 0 0 0 0 0 0 0 0 127 0" result="hardAlpha"/>
<feOffset dx="6.79346" dy="6.79346"/>
<feGaussianBlur stdDeviation="3.39673"/>
<feComposite in2="hardAlpha" operator="arithmetic" k2="-1" k3="1"/>
<feColorMatrix type="matrix" values="0 0 0 0 0.495833 0 0 0 0 0.0227257 0 0 0 0 0.0227257 0 0 0 1 0"/>
<feBlend mode="normal" in2="effect1_innerShadow_33_15" result="effect2_innerShadow_33_15"/>
</filter>
<filter id="filter1_ii_33_15" x="-8.07884" y="64.9856" width="230.023" height="225.992" filterUnits="userSpaceOnUse" color-interpolation-filters="sRGB">
<feFlood flood-opacity="0" result="BackgroundImageFix"/>
<feBlend mode="normal" in="SourceGraphic" in2="BackgroundImageFix" result="shape"/>
<feColorMatrix in="SourceAlpha" type="matrix" values="0 0 0 0 0 0 0 0 0 0 0 0 0 0 0 0 0 0 127 0" result="hardAlpha"/>
<feOffset dx="-8.07884" dy="-8.07884"/>
<feGaussianBlur stdDeviation="8.07884"/>
<feComposite in2="hardAlpha" operator="arithmetic" k2="-1" k3="1"/>
<feColorMatrix type="matrix" values="0 0 0 0 0 0 0 0 0 0 0 0 0 0 0 0 0 0 0.5 0"/>
<feBlend mode="normal" in2="shape" result="effect1_innerShadow_33_15"/>
<feColorMatrix in="SourceAlpha" type="matrix" values="0 0 0 0 0 0 0 0 0 0 0 0 0 0 0 0 0 0 127 0" result="hardAlpha"/>
<feOffset dx="16.1577" dy="16.1577"/>
<feGaussianBlur stdDeviation="8.07884"/>
<feComposite in2="hardAlpha" operator="arithmetic" k2="-1" k3="1"/>
<feColorMatrix type="matrix" values="0 0 0 0 0.495833 0 0 0 0 0.0227257 0 0 0 0 0.0227257 0 0 0 1 0"/>
<feBlend mode="normal" in2="effect1_innerShadow_33_15" result="effect2_innerShadow_33_15"/>
</filter>
<filter id="filter2_ii_33_15" x="145.815" y="20.1886" width="49.3231" height="55.9298" filterUnits="userSpaceOnUse" color-interpolation-filters="sRGB">
<feFlood flood-opacity="0" result="BackgroundImageFix"/>
<feBlend mode="normal" in="SourceGraphic" in2="BackgroundImageFix" result="shape"/>
<feColorMatrix in="SourceAlpha" type="matrix" values="0 0 0 0 0 0 0 0 0 0 0 0 0 0 0 0 0 0 127 0" result="hardAlpha"/>
<feOffset dx="-1.86804" dy="-1.86804"/>
<feGaussianBlur stdDeviation="1.86804"/>
<feComposite in2="hardAlpha" operator="arithmetic" k2="-1" k3="1"/>
<feColorMatrix type="matrix" values="0 0 0 0 0 0 0 0 0 0 0 0 0 0 0 0 0 0 0.5 0"/>
<feBlend mode="normal" in2="shape" result="effect1_innerShadow_33_15"/>
<feColorMatrix in="SourceAlpha" type="matrix" values="0 0 0 0 0 0 0 0 0 0 0 0 0 0 0 0 0 0 127 0" result="hardAlpha"/>
<feOffset dx="3.73609" dy="3.73609"/>
<feGaussianBlur stdDeviation="1.86804"/>
<feComposite in2="hardAlpha" operator="arithmetic" k2="-1" k3="1"/>
<feColorMatrix type="matrix" values="0 0 0 0 0.495833 0 0 0 0 0.0227257 0 0 0 0 0.0227257 0 0 0 1 0"/>
<feBlend mode="normal" in2="effect1_innerShadow_33_15" result="effect2_innerShadow_33_15"/>
</filter>
<clipPath id="clip0_33_15">
<rect width="282.759" height="282.759" fill="white" transform="translate(0 0.35498)"/>
</clipPath>
</defs>
</svg>
